<svg id="alarm-bold" xmlns="http://www.w3.org/2000/svg" viewBox="0 0 512 512"><path d="M78.7,512h-8A18.38,18.38,0,0,0,68,510.93c-12.9-3-21.14-10.9-24.38-23.72-1.62-6.39-.9-12.87-.06-19.35,2.37-18.3,10.53-33.5,24.07-45.93a28.1,28.1,0,0,0,2-2.2c-.88-1.3-1.58-2.43-2.38-3.49A233.27,233.27,0,0,1,38.32,365a226.3,226.3,0,0,1-16.38-69.73,242.1,242.1,0,0,1,.59-42,225.48,225.48,0,0,1,10.74-50.18C48.61,158,75.14,120.68,112.93,91.56a228.84,228.84,0,0,1,106.9-45.88,37.55,37.55,0,0,0,4.47-1.27c0-3.54-.11-6.86,0-10.17a74,74,0,0,1,.85-8.92,31.59,31.59,0,0,1,61.89-.1A105.19,105.19,0,0,1,288,37.14c.13,2.45,0,4.92,0,7.63,56.31,8.58,103.78,33.08,141.78,74.86s58.55,91.36,60.89,148c2.33,56.39-14.27,107-48.44,152.73a29.17,29.17,0,0,1,3.18,2.25c16.65,15.64,24.34,35,24.15,57.69-.12,15.16-10.29,27.43-25.24,30.63a17.34,17.34,0,0,0-2.71,1.07h-8a16.41,16.41,0,0,0-2.62-1.15c-14.41-3.61-23.48-14.38-24.53-29.1a44.61,44.61,0,0,0-.79-6.44c-1.15-5.16-4.38-8.36-9.54-9.81-1.67,1.16-3.16,2.21-4.65,3.26a232,232,0,0,1-69,33.33,221.12,221.12,0,0,1-51.55,9,18.7,18.7,0,0,0-3.74,1H245.12a38.93,38.93,0,0,0-4.24-1c-8.59-1.05-17.25-1.65-25.77-3.1-34.93-5.94-66.69-19.56-95.55-40-1.2-.85-2.47-1.6-3.5-2.26-6.09,2.06-8.7,5-9.58,10.65-.28,1.8-.5,3.63-.63,5.45-1.07,14.77-10.12,25.51-24.53,29.13A16.81,16.81,0,0,0,78.7,512Zm177.17-63.82c92.22.64,171.58-74.26,171.68-170.84a171.41,171.41,0,0,0-342.81-.57C84.5,373,163.16,448.35,255.87,448.18Z"/><path d="M.31,93.26C1.77,66.31,10.52,42.71,30.73,24.13A87.55,87.55,0,0,1,76.89,1.84,112.28,112.28,0,0,1,95.78,0a31.59,31.59,0,0,1,6,62.62,87.4,87.4,0,0,1-9.44.9c-7.36.57-14.07,2.68-19.42,8S65.14,83.9,64.47,91.4c-.29,3.32-.45,6.65-.92,9.94A31,31,0,0,1,33.6,127.41,31.28,31.28,0,0,1,1.89,104.07C1,100.58.81,96.87.31,93.26Z"/><path d="M511.69,93.92c0,13.12-5.28,23.65-17.47,30A31.42,31.42,0,0,1,448.69,101c-.46-2.79-.49-5.64-.85-8.44a54.06,54.06,0,0,0-1.46-8.83c-3.79-12.41-12.78-19.15-26.28-20.12-3.15-.22-6.32-.43-9.44-.87-12.17-1.7-25.94-13.11-25.85-31.14.09-17.72,13.57-29,25.67-30.79A47.58,47.58,0,0,1,419.91,0c10.19.53,20.27,1.88,29.92,5.36,31.14,11.23,50.47,33.16,58.74,65A111.65,111.65,0,0,1,511.69,93.92Z"/><path d="M224.31,223.58c0-14.16-.14-28.32,0-42.48.18-14.49,9.31-26.66,23.15-30.32,19.66-5.2,35.61,6.95,39.43,22.9a37.14,37.14,0,0,1,1,8.4c.07,27.82.13,55.64,0,83.46,0,11.79-4.79,21.38-15,27.75-17.95,11.24-43.2,2.13-47.8-20.32a43.16,43.16,0,0,1-.86-8.41c-.09-13.66,0-27.32,0-41Z"/><path d="M256.27,341.79A30.88,30.88,0,0,1,287.84,373c.1,20.54-16.81,32.07-32.06,31.9-14.36-.16-31.19-11.05-31.35-31.65C224.29,353.72,240.83,341.05,256.27,341.79Z"/></svg>