<svg xmlns="http://www.w3.org/2000/svg" viewBox="0 0 512 512"><path d="M512,241v30l-1.23,10.79c-6.12,55.09-27.16,103.68-64.29,144.89C407.06,470.42,358.21,497.73,300.1,508c-9.64,1.7-19.4,2.67-29.1,4H241a27.65,27.65,0,0,0-3.86-.82c-40-2.83-77.51-14.28-111.69-35.23C59.13,435.3,18.31,376.71,4,300c-1.8-9.59-2.68-19.35-4-29V241c.41-3.6.83-7.19,1.23-10.79C7.35,175.12,28.39,126.52,65.52,85.32,104.94,41.58,153.79,14.27,211.9,4c9.64-1.7,19.4-2.67,29.1-4h30a27.65,27.65,0,0,0,3.86.82c40.05,2.83,77.51,14.28,111.69,35.23C452.87,76.7,493.69,135.29,508,212,509.81,221.55,510.69,231.31,512,241ZM216.87,298.91c-10.17-9.3-19.47-17.84-28.81-26.35-14.17-12.89-28-26.15-42.65-38.51-11.36-9.61-29.08-5.94-36.47,6.58-6.51,11-4,24.17,6.52,33.77q41.19,37.56,82.41,75.07,20.38,18.58,40-.86L395.73,191.9c1.66-1.65,3.32-3.3,4.81-5.08a25.55,25.55,0,0,0-7.25-39c-11-6.17-22.58-3.95-32.94,6.41q-70,70-140,140A42.55,42.55,0,0,0,216.87,298.91Z"/></svg>