<svg xmlns="http://www.w3.org/2000/svg" viewBox="0 0 512 512"><path d="M266.13,512h-20c-1.59-.32-3.16-.78-4.77-.94-4.47-.43-9-.67-13.43-1.11a240.15,240.15,0,0,1-52.06-11.27A257.23,257.23,0,0,1,26.57,368.44,248,248,0,0,1,1,271.64a49.7,49.7,0,0,0-1-5.77v-20a29.87,29.87,0,0,0,.93-4.78A215.7,215.7,0,0,1,4,213.32a242.44,242.44,0,0,1,22.33-69.61Q57.93,80,117.57,41.12C158.12,14.8,202.7,1.49,250.9.09a251.3,251.3,0,0,1,47.73,3.65,244.74,244.74,0,0,1,69.61,22.34q63.7,31.56,102.61,91.19c26.32,40.54,39.59,85.13,41.07,133.32A248.69,248.69,0,0,1,510.24,284,245.23,245.23,0,0,1,499,336.07,257.12,257.12,0,0,1,370.06,484.73,248.52,248.52,0,0,1,271.91,511,50.23,50.23,0,0,0,266.13,512ZM482.47,256.36C483.09,131.87,381.23,29.92,257,29.45,132.31,29,30.12,130.7,29.71,255.11c-.4,124.67,101.35,226.83,225.79,227.17C380.15,482.61,482.56,380.83,482.47,256.36Z"/></svg>