<svg xmlns="http://www.w3.org/2000/svg" viewBox="0 0 512 512">
<path d="M449.12,85.93c-3.16-.06-6.32-.07-9.47-.07H381.88a27.05,27.05,0,0,1-1.21-3.21A106.07,106.07,0,0,0,301.45,3.22c-4.51-1-9.16-1.46-13.74-2.23A38.36,38.36,0,0,1,284,0H228.07a23.13,23.13,0,0,1-3.76,1,103.1,103.1,0,0,0-57.85,24.39,104.23,104.23,0,0,0-35.31,58.25,11.62,11.62,0,0,1-.85,1.85c-1.7.12-3.63.36-5.55.37-19.63,0-39.25,0-58.87,0-5.12,0-9.88.83-14.06,4.06-6.88,5.32-9.46,12.48-8,20.76s6.58,13.73,14.66,16.06a33.41,33.41,0,0,0,8.36,1c6.13.14,12.27,0,18.63,0a34.27,34.27,0,0,1,.65,3.61c.1,1.49,0,3,0,4.5q0,133.19,0,266.39c0,14.14,1.6,27.93,6.94,41.06,14.48,35.62,40.69,57.54,78,66.24,3.37.78,6.9.9,10.35,1.42a31.05,31.05,0,0,1,3.72,1H326.88a21.59,21.59,0,0,1,3.72-1,102.29,102.29,0,0,0,58.16-24.87c19-16.29,30.71-36.9,35.5-61.47,1.47-7.56,1.57-15.22,1.57-22.88V128.23c1.8-.19,3.07-.43,4.34-.44,5.82,0,11.64.12,17.45-.06,9.72-.29,17.42-6.14,20.05-15.16C471.58,99.2,461.77,86.2,449.12,85.93ZM178,76.75c10.21-18.8,26-29.82,46.92-33.66a72.46,72.46,0,0,1,12.42-.9c12.47-.11,24.95-.09,37.42,0,19.35.1,36.13,6.46,49.58,20.75a63.69,63.69,0,0,1,12.29,19.26,28,28,0,0,1,.86,2.92,8.51,8.51,0,0,1-2.1.67q-79.34,0-158.68,0a10.34,10.34,0,0,1-2.4-.75C175.56,82.1,176.57,79.32,178,76.75ZM374.29,439.31c-10.4,16.34-25.26,26.14-44.24,29.57a73.19,73.19,0,0,1-12.91.93q-61.11.1-122.22,0c-17.46,0-33-5.13-46-17.16-13.35-12.37-20.72-27.64-20.79-45.92-.19-43.82-.07-87.64-.07-131.45V128H383.45a25.19,25.19,0,0,1,.51,3.38c.07,3.33,0,6.66,0,10q0,131.46,0,262.91C384,416.91,381.09,428.63,374.29,439.31Z"/>
<path d="M234.2,298.5V239c0-1.83-.08-3.67,0-5.5.14-7.91-5.79-16.11-13.58-18.51-8.21-2.52-15.77-1.33-22.07,5-4.65,4.66-6.17,10.42-6.16,16.85q.07,61.72,0,123.46c0,1.16,0,2.33.06,3.49a21.31,21.31,0,0,0,14.76,18.89,21,21,0,0,0,22.46-6.81c3.58-4.35,4.61-9.4,4.59-14.92C234.15,340.15,234.2,319.33,234.2,298.5Z"/>
<path d="M318.44,228.17c-2.28-7.58-10.14-15.92-23.51-14.09-9,1.24-17,10-17,18.81,0,1.83-.08,3.66-.08,5.49q0,30,0,60,0,30.48,0,61a58.4,58.4,0,0,0,.22,6.49c1.23,11.14,12.45,19.57,23.72,17.57,11.08-2,17.85-10.28,17.86-21.91q.09-62.73,0-125.45A27.5,27.5,0,0,0,318.44,228.17Z"/></svg>